<svg width="43" height="39" viewBox="0 0 43 39" fill="none" xmlns="http://www.w3.org/2000/svg">
<path d="M40.1567 0.745117L24.0703 12.664L27.0513 5.63701L40.1567 0.745117Z" fill="#E27625"/>
<path d="M3.01562 0.745117L18.9678 12.7721L16.1211 5.63701L3.01562 0.745117Z" fill="#E27625"/>
<path d="M34.3828 28.3937L30.0859 34.9343L39.2705 37.4748L41.9023 28.5289L34.3828 28.3937Z" fill="#E27625"/>
<path d="M1.32373 28.5289L3.92871 37.4748L13.0864 34.9343L8.81641 28.3937L1.32373 28.5289Z" fill="#E27625"/>
<path d="M12.603 17.3127L10.0518 21.1776L19.1289 21.583L18.8335 11.7992L12.603 17.3127Z" fill="#E27625"/>
<path d="M30.5962 17.3127L24.2583 11.691L24.0703 21.5829L33.1475 21.1775L30.5962 17.3127Z" fill="#E27625"/>
<path d="M13.0864 34.9343L18.5918 32.2857L13.8384 28.61L13.0864 34.9343Z" fill="#E27625"/>
<path d="M24.6074 32.2857L30.0859 34.9343L29.334 28.61L24.6074 32.2857Z" fill="#E27625"/>
<path d="M30.0859 34.9343L24.6074 32.2856L25.064 35.8532L25.0103 37.3667L30.0859 34.9343Z" fill="#D7C1B3"/>
<path d="M13.0864 34.9343L18.189 37.3667L18.1621 35.8532L18.5918 32.2856L13.0864 34.9343Z" fill="#D7C1B3"/>
<path d="M18.2695 26.2316L13.731 24.9073L16.9536 23.4208L18.2695 26.2316Z" fill="#2F343B"/>
<path d="M24.9028 26.2316L26.2456 23.4208L29.4683 24.9073L24.9028 26.2316Z" fill="#2F343B"/>
<path d="M13.0864 34.9343L13.8921 28.3937L8.81641 28.5289L13.0864 34.9343Z" fill="#CC6228"/>
<path d="M29.3071 28.3937L30.0859 34.9343L34.3828 28.5289L29.3071 28.3937Z" fill="#CC6228"/>
<path d="M33.1475 21.1776L24.0703 21.583L24.9028 26.2316L26.2456 23.4208L29.4683 24.9073L33.1475 21.1776Z" fill="#CC6228"/>
<path d="M13.731 24.9073L16.9536 23.4208L18.2695 26.2316L19.1289 21.583L10.0518 21.1776L13.731 24.9073Z" fill="#CC6228"/>
<path d="M10.0518 21.1776L13.8384 28.61L13.731 24.9073L10.0518 21.1776Z" fill="#E27625"/>
<path d="M29.4683 24.9073L29.334 28.61L33.1475 21.1776L29.4683 24.9073Z" fill="#E27625"/>
<path d="M19.1289 21.5829L18.2695 26.2316L19.3438 31.7451L19.5854 24.5019L19.1289 21.5829Z" fill="#E27625"/>
<path d="M24.0703 21.5829L23.6138 24.4748L23.8286 31.7451L24.9028 26.2316L24.0703 21.5829Z" fill="#E27625"/>
<path d="M24.9028 26.2316L23.8286 31.7451L24.6074 32.2857L29.334 28.61L29.4683 24.9073L24.9028 26.2316Z" fill="#F5841F"/>
<path d="M13.731 24.9073L13.8384 28.61L18.5918 32.2857L19.3438 31.7451L18.2695 26.2316L13.731 24.9073Z" fill="#F5841F"/>
<path d="M25.0103 37.3668L25.064 35.8532L24.6343 35.5019H18.5381L18.1621 35.8532L18.189 37.3668L13.0864 34.9343L14.8589 36.3938L18.4844 38.9073H24.688L28.3135 36.3938L30.0859 34.9343L25.0103 37.3668Z" fill="#C0AD9E"/>
<path d="M24.6074 32.2857L23.8286 31.7451H19.3438L18.5918 32.2857L18.1621 35.8532L18.5381 35.5019H24.6343L25.064 35.8532L24.6074 32.2857Z" fill="#2F343B"/>
<path d="M40.855 13.4478L42.1978 6.85323L40.1567 0.745117L24.6074 12.2586L30.5962 17.3127L39.0557 19.7992L40.9087 17.61L40.103 17.0154L41.3921 15.8532L40.3984 15.0694L41.6875 14.0965L40.855 13.4478Z" fill="#763E1A"/>
<path d="M0.974609 6.85323L2.34424 13.4478L1.48486 14.0965L2.77393 15.0965L1.78027 15.8532L3.06934 17.0154L2.26367 17.61L4.14355 19.7992L12.603 17.3127L18.5918 12.2586L3.01562 0.745117L0.974609 6.85323Z" fill="#763E1A"/>
<path d="M39.0557 19.7992L30.5962 17.3127L33.1475 21.1775L29.334 28.61L34.3828 28.5289H41.9023L39.0557 19.7992Z" fill="#F5841F"/>
<path d="M12.603 17.3127L4.14356 19.7992L1.32373 28.5289H8.81641L13.8384 28.61L10.0518 21.1775L12.603 17.3127Z" fill="#F5841F"/>
<path d="M24.0703 21.583L24.6074 12.2586L27.0513 5.63702H16.1211L18.5918 12.2586L19.1289 21.583L19.3438 24.5019V31.7451H23.8286L23.8555 24.5019L24.0703 21.583Z" fill="#F5841F"/>
</svg>
