<svg width="33" height="33" viewBox="0 0 33 33" fill="none" xmlns="http://www.w3.org/2000/svg">
<path d="M16.2018 0.0456543C7.36516 0.0456543 0.201782 7.20903 0.201782 16.0457C0.201782 24.8823 7.36516 32.0457 16.2018 32.0457C25.0384 32.0457 32.2018 24.8823 32.2018 16.0457C32.2018 7.20903 25.0384 0.0456543 16.2018 0.0456543Z" fill="#40B3E0"/>
<path d="M23.9871 9.24953L21.1294 23.6579C21.1294 23.6579 20.7297 24.6572 19.6306 24.1775L13.0359 19.1215L10.6379 17.9625L6.60111 16.6035C6.60111 16.6035 5.98161 16.3838 5.92161 15.9042C5.86173 15.4245 6.62111 15.1648 6.62111 15.1648L22.6681 8.86978C22.6681 8.86978 23.9871 8.29028 23.9871 9.24953Z" fill="white"/>
<path d="M12.529 23.4961C12.529 23.4961 12.3365 23.4781 12.0966 22.7186C11.8569 21.9592 10.6379 17.9625 10.6379 17.9625L20.33 11.8075C20.33 11.8075 20.8896 11.4677 20.8696 11.8075C20.8696 11.8075 20.9695 11.8674 20.6698 12.1471C20.37 12.427 13.0559 19.0016 13.0559 19.0016" fill="#D2E5F1"/>
<path d="M15.5645 21.0601L12.956 23.4384C12.956 23.4384 12.7521 23.5931 12.529 23.4961L13.0285 19.0785" fill="#B5CFE4"/>
</svg>
