<svg width="159" height="125" viewBox="0 0 159 125" fill="none" xmlns="http://www.w3.org/2000/svg">
<g filter="url(#filter0_d_38_297)">
<path d="M67.2386 98.5534C62.2842 104.251 53.0201 102.448 50.5633 95.3091L27.7117 28.9065C25.2549 21.7672 31.4478 14.6455 38.8591 16.0874L107.791 29.4987C115.202 30.9406 118.274 39.8647 113.319 45.5621L67.2386 98.5534Z" fill="#1662AA"/>
<path d="M52.4544 94.6583L29.6029 28.2557C27.647 22.5722 32.5771 16.9027 38.4771 18.0506L107.409 31.4619C113.309 32.6098 115.754 39.7141 111.81 44.2497L65.7294 97.241C61.7853 101.777 54.4103 100.342 52.4544 94.6583Z" stroke="#0083FF" stroke-width="4"/>
</g>
<g filter="url(#filter1_d_38_297)">
<path d="M85.7921 94.8166C83.5356 102.022 74.3255 104.082 69.2139 98.5256L21.6708 46.8425C16.5591 41.2858 19.3797 32.2793 26.7478 30.6309L95.2783 15.2989C102.646 13.6504 109.036 20.5963 106.779 27.8015L85.7921 94.8166Z" fill="#9F4A01"/>
<path d="M20.1988 48.1965L67.742 99.8796C73.8959 106.569 84.9841 104.089 87.7007 95.4144L108.688 28.3992C111.405 19.7248 103.712 11.3625 94.8416 13.3471L26.3111 28.6792C17.4406 30.6637 14.0449 41.5067 20.1988 48.1965Z" stroke="#B75603" stroke-width="4"/>
</g>
<path d="M142.603 65.1692V41.8284H158.877V46.4099H148.244V51.1966H158.045V55.7896H148.244V60.5877H158.877V65.1692H142.603Z" fill="white"/>
<path d="M124.331 65.1692V41.8284H129.972V60.5877H139.682V65.1692H124.331Z" fill="white"/>
<path d="M101.847 46.4099V41.8284H121.575V46.4099H114.498V65.1692H108.936V46.4099H101.847Z" fill="white"/>
<path d="M80.1276 46.4099V41.8284H99.8556V46.4099H92.7781V65.1692H87.2164V46.4099H80.1276Z" fill="white"/>
<path d="M61.0835 65.1692V41.8284H77.3583V46.4099H66.725V51.1966H76.5263V55.7896H66.725V60.5877H77.3583V65.1692H61.0835Z" fill="white"/>
<path d="M39.7711 65.1692V41.8284H49.5041C51.2516 41.8284 52.7142 42.0753 53.8919 42.5692C55.0771 43.063 55.9661 43.7544 56.5587 44.6434C57.159 45.5324 57.4591 46.5619 57.4591 47.732C57.4591 48.6209 57.2729 49.4149 56.9006 50.1139C56.5283 50.8053 56.0155 51.379 55.3621 51.8348C54.7086 52.2907 53.9526 52.6098 53.0941 52.7922V53.0201C54.0362 53.0657 54.9062 53.3202 55.704 53.7837C56.5094 54.2472 57.1552 54.893 57.6414 55.7212C58.1277 56.5418 58.3708 57.5143 58.3708 58.6388C58.3708 59.8924 58.0517 61.0131 57.4135 62.0009C56.7753 62.981 55.8521 63.756 54.6441 64.3258C53.436 64.8881 51.9696 65.1692 50.2449 65.1692H39.7711ZM45.4126 60.6218H48.9C50.1233 60.6218 51.0236 60.3901 51.6011 59.9266C52.1861 59.4632 52.4787 58.8173 52.4787 57.9892C52.4787 57.3889 52.3381 56.8723 52.057 56.4392C51.7758 55.9985 51.377 55.6604 50.8603 55.4249C50.3436 55.1817 49.7244 55.0602 49.0026 55.0602H45.4126V60.6218ZM45.4126 51.4246H48.5353C49.1508 51.4246 49.6978 51.322 50.1765 51.1168C50.6552 50.9117 51.0274 50.6154 51.2934 50.2279C51.5669 49.8404 51.7037 49.3731 51.7037 48.8261C51.7037 48.0435 51.4263 47.428 50.8717 46.9798C50.317 46.5315 49.5686 46.3073 48.6265 46.3073H45.4126V51.4246Z" fill="white"/>
<defs>
<filter id="filter0_d_38_297" x="14.2648" y="6.9999" width="114.37" height="111.829" filterUnits="userSpaceOnUse" color-interpolation-filters="sRGB">
<feFlood flood-opacity="0" result="BackgroundImageFix"/>
<feColorMatrix in="SourceAlpha" type="matrix" values="0 0 0 0 0 0 0 0 0 0 0 0 0 0 0 0 0 0 127 0" result="hardAlpha"/>
<feOffset dy="4"/>
<feGaussianBlur stdDeviation="6.45"/>
<feComposite in2="hardAlpha" operator="out"/>
<feColorMatrix type="matrix" values="0 0 0 0 0.105882 0 0 0 0 0.482353 0 0 0 0 0.831373 0 0 0 1 0"/>
<feBlend mode="normal" in2="BackgroundImageFix" result="effect1_dropShadow_38_297"/>
<feBlend mode="normal" in="SourceGraphic" in2="effect1_dropShadow_38_297" result="shape"/>
</filter>
<filter id="filter1_d_38_297" x="0.370313" y="0.350415" width="125.574" height="124.049" filterUnits="userSpaceOnUse" color-interpolation-filters="sRGB">
<feFlood flood-opacity="0" result="BackgroundImageFix"/>
<feColorMatrix in="SourceAlpha" type="matrix" values="0 0 0 0 0 0 0 0 0 0 0 0 0 0 0 0 0 0 127 0" result="hardAlpha"/>
<feOffset dy="4"/>
<feGaussianBlur stdDeviation="7.35"/>
<feComposite in2="hardAlpha" operator="out"/>
<feColorMatrix type="matrix" values="0 0 0 0 0.611765 0 0 0 0 0.392157 0 0 0 0 0.203922 0 0 0 1 0"/>
<feBlend mode="normal" in2="BackgroundImageFix" result="effect1_dropShadow_38_297"/>
<feBlend mode="normal" in="SourceGraphic" in2="effect1_dropShadow_38_297" result="shape"/>
</filter>
</defs>
</svg>
