<svg width="38" height="39" viewBox="0 0 38 39" fill="none" xmlns="http://www.w3.org/2000/svg">
<g clip-path="url(#clip0_22_243)">
<path fill-rule="evenodd" clip-rule="evenodd" d="M31.1117 1.29723C29.2654 -1.12428 25.3481 0.160174 25.3481 3.18704V6.22639C19.3754 6.15569 15.2897 8.20874 12.5682 11.0759C9.65889 14.1408 8.46227 17.9726 7.96083 20.5927C7.71013 21.9026 8.56939 22.8531 9.47243 23.1813C10.3351 23.4948 11.4879 23.3606 12.2572 22.4812C14.4406 19.9855 18.6826 16.5023 25.3481 16.7297V20.6255C25.3481 23.6524 29.2654 24.9368 31.1117 22.5152L37.0394 14.741C38.3202 13.0611 38.3202 10.7514 37.0394 9.07154L31.1117 1.29723ZM11.8465 18.413C14.7048 15.9186 18.8076 13.5777 25.3481 13.5777H26.9495C27.8338 13.5777 28.5505 14.2829 28.5505 15.1527L28.5502 20.6255L34.4777 12.8512C34.9048 12.2912 34.9048 11.5213 34.4777 10.9613L28.5502 3.18704V7.80127C28.5502 8.67102 27.8334 9.3761 26.9491 9.3761H25.3481C18.1439 9.3761 14.9086 13.2254 14.9086 13.2254C13.4192 14.7945 12.4606 16.6594 11.8465 18.413Z" fill="#9E9E9E"/>
<path d="M11.0833 1.62109H6.33331C3.70997 1.62109 1.58331 3.74773 1.58331 6.37109V31.7044C1.58331 34.3278 3.70997 36.4544 6.33331 36.4544H31.6666C34.2901 36.4544 36.4166 34.3278 36.4166 31.7044V26.9544C36.4166 26.0799 35.7078 25.3711 34.8333 25.3711C33.9588 25.3711 33.25 26.0799 33.25 26.9544V31.7044C33.25 32.5789 32.5411 33.2877 31.6666 33.2877H6.33331C5.45887 33.2877 4.74998 32.5789 4.74998 31.7044V6.37109C4.74998 5.49663 5.45887 4.78776 6.33331 4.78776H11.0833C11.9578 4.78776 12.6666 4.07887 12.6666 3.20443C12.6666 2.32997 11.9578 1.62109 11.0833 1.62109Z" fill="#9E9E9E"/>
</g>
<defs>
<clipPath id="clip0_22_243">
<rect width="38" height="38" fill="white" transform="translate(0 0.03125)"/>
</clipPath>
</defs>
</svg>
